HIERARCHY
ROOT mixamorig:Hips
{
	OFFSET 0.000000 104.274902 0.000000
	CHANNELS 6 Xposition Yposition Zposition Xrotation Yrotation Zrotation
	JOINT mixamorig:Spine
	{
		OFFSET 0.000000 10.181549 0.131524
		CHANNELS 6 Xposition Yposition Zposition Xrotation Yrotation Zrotation
		JOINT mixamorig:Spine1
		{
			OFFSET 0.000000 9.893990 -1.470706
			CHANNELS 3 Xrotation Yrotation Zrotation
			JOINT mixamorig:Spine2
			{
				OFFSET 0.000000 9.220787 -1.370637
				CHANNELS 3 Xrotation Yrotation Zrotation
				JOINT mixamorig:Neck
				{
					OFFSET 0.000000 16.740372 -2.049022
					CHANNELS 6 Xposition Yposition Zposition Xrotation Yrotation Zrotation
					JOINT mixamorig:Head
					{
						OFFSET 0.000000 9.617859 1.684976
						CHANNELS 6 Xposition Yposition Zposition Xrotation Yrotation Zrotation
						JOINT mixamorig:HeadTop_End
						{
							OFFSET 0.000000 22.037384 7.501072
							CHANNELS 6 Xposition Yposition Zposition Xrotation Yrotation Zrotation
							End Site
							{
								OFFSET 0.000000 23.106567 -2.828246
							}
						}
					}
				}
				JOINT mixamorig:RightShoulder
				{
					OFFSET -4.570000 11.014877 -2.160840
					CHANNELS 6 Xposition Yposition Zposition Xrotation Yrotation Zrotation
					JOINT mixamorig:RightArm
					{
						OFFSET -10.592867 -0.524796 -2.232105
						CHANNELS 3 Xrotation Yrotation Zrotation
						JOINT mixamorig:RightForeArm
						{
							OFFSET -27.841497 0.000000 -0.000002
							CHANNELS 3 Xrotation Yrotation Zrotation
							JOINT mixamorig:RightHand
							{
								OFFSET -28.328812 0.000000 -0.000001
								CHANNELS 3 Xrotation Yrotation Zrotation
								JOINT mixamorig:RightHandThumb1
								{
									OFFSET -2.464798 -1.573990 2.681911
									CHANNELS 6 Xposition Yposition Zposition Xrotation Yrotation Zrotation
									JOINT mixamorig:RightHandThumb2
									{
										OFFSET -3.244781 -1.873383 1.873376
										CHANNELS 3 Xrotation Yrotation Zrotation
										JOINT mixamorig:RightHandThumb3
										{
											OFFSET -2.646263 -1.527817 1.527818
											CHANNELS 6 Xposition Yposition Zposition Xrotation Yrotation Zrotation
											JOINT mixamorig:RightHandThumb4
											{
												OFFSET -1.994591 -1.151581 1.151575
												CHANNELS 6 Xposition Yposition Zposition Xrotation Yrotation Zrotation
												End Site
												{
													OFFSET -1.860176 -1.142715 1.365483
												}
											}
										}
									}
								}
								JOINT mixamorig:RightHandIndex1
								{
									OFFSET -9.108299 -0.517883 2.259803
									CHANNELS 6 Xposition Yposition Zposition Xrotation Yrotation Zrotation
									JOINT mixamorig:RightHandIndex2
									{
										OFFSET -3.699997 0.000000 0.000000
										CHANNELS 3 Xrotation Yrotation Zrotation
										JOINT mixamorig:RightHandIndex3
										{
											OFFSET -2.850006 0.000000 0.000000
											CHANNELS 3 Xrotation Yrotation Zrotation
											JOINT mixamorig:RightHandIndex4
											{
												OFFSET -2.772194 0.000000 0.000000
												CHANNELS 3 Xrotation Yrotation Zrotation
												End Site
												{
													OFFSET -2.772202 0.000000 -0.000484
												}
											}
										}
									}
								}
								JOINT mixamorig:RightHandMiddle1
								{
									OFFSET -9.532501 0.000000 -0.000000
									CHANNELS 6 Xposition Yposition Zposition Xrotation Yrotation Zrotation
									JOINT mixamorig:RightHandMiddle2
									{
										OFFSET -3.699997 0.000000 0.000000
										CHANNELS 3 Xrotation Yrotation Zrotation
										JOINT mixamorig:RightHandMiddle3
										{
											OFFSET -2.949997 0.000000 0.000000
											CHANNELS 3 Xrotation Yrotation Zrotation
											JOINT mixamorig:RightHandMiddle4
											{
												OFFSET -2.946594 0.000000 0.000000
												CHANNELS 3 Xrotation Yrotation Zrotation
												End Site
												{
													OFFSET -2.946602 0.000000 -0.000982
												}
											}
										}
									}
								}
								JOINT mixamorig:RightHandRing1
								{
									OFFSET -9.103600 -0.043106 -1.865100
									CHANNELS 6 Xposition Yposition Zposition Xrotation Yrotation Zrotation
									JOINT mixamorig:RightHandRing2
									{
										OFFSET -3.379303 0.000000 0.000000
										CHANNELS 3 Xrotation Yrotation Zrotation
										JOINT mixamorig:RightHandRing3
										{
											OFFSET -2.889694 0.000000 0.000000
											CHANNELS 3 Xrotation Yrotation Zrotation
											JOINT mixamorig:RightHandRing4
											{
												OFFSET -2.638802 0.000000 0.000000
												CHANNELS 3 Xrotation Yrotation Zrotation
												End Site
												{
													OFFSET -2.638802 0.000000 0.004218
												}
											}
										}
									}
								}
								JOINT mixamorig:RightHandPinky1
								{
									OFFSET -8.076698 -0.486725 -3.806299
									CHANNELS 6 Xposition Yposition Zposition Xrotation Yrotation Zrotation
									JOINT mixamorig:RightHandPinky2
									{
										OFFSET -3.600006 0.000000 0.000000
										CHANNELS 3 Xrotation Yrotation Zrotation
										JOINT mixamorig:RightHandPinky3
										{
											OFFSET -2.099998 0.000000 0.000000
											CHANNELS 3 Xrotation Yrotation Zrotation
											JOINT mixamorig:RightHandPinky4
											{
												OFFSET -2.115791 0.000000 0.000000
												CHANNELS 3 Xrotation Yrotation Zrotation
												End Site
												{
													OFFSET -2.115799 0.000000 0.000174
												}
											}
										}
									}
								}
							}
						}
					}
				}
				JOINT mixamorig:LeftShoulder
				{
					OFFSET 4.570400 11.014679 -2.160816
					CHANNELS 6 Xposition Yposition Zposition Xrotation Yrotation Zrotation
					JOINT mixamorig:LeftArm
					{
						OFFSET 10.592373 -0.524597 -2.232116
						CHANNELS 3 Xrotation Yrotation Zrotation
						JOINT mixamorig:LeftForeArm
						{
							OFFSET 27.841488 0.000000 0.000001
							CHANNELS 3 Xrotation Yrotation Zrotation
							JOINT mixamorig:LeftHand
							{
								OFFSET 28.328808 0.000000 -0.000000
								CHANNELS 3 Xrotation Yrotation Zrotation
								JOINT mixamorig:LeftHandThumb1
								{
									OFFSET 2.466103 -1.576202 2.681698
									CHANNELS 6 Xposition Yposition Zposition Xrotation Yrotation Zrotation
									JOINT mixamorig:LeftHandThumb2
									{
										OFFSET 3.243317 -1.872528 1.872530
										CHANNELS 3 Xrotation Yrotation Zrotation
										JOINT mixamorig:LeftHandThumb3
										{
											OFFSET 2.647881 -1.528763 1.528754
											CHANNELS 6 Xposition Yposition Zposition Xrotation Yrotation Zrotation
											JOINT mixamorig:LeftHandThumb4
											{
												OFFSET 1.998924 -1.154083 1.154080
												CHANNELS 6 Xposition Yposition Zposition Xrotation Yrotation Zrotation
												End Site
												{
													OFFSET 1.884041 -1.149155 1.337651
												}
											}
										}
									}
								}
								JOINT mixamorig:LeftHandIndex1
								{
									OFFSET 9.109299 -0.518005 2.259900
									CHANNELS 6 Xposition Yposition Zposition Xrotation Yrotation Zrotation
									JOINT mixamorig:LeftHandIndex2
									{
										OFFSET 3.699997 0.000000 0.000000
										CHANNELS 3 Xrotation Yrotation Zrotation
										JOINT mixamorig:LeftHandIndex3
										{
											OFFSET 2.850006 0.000000 0.000000
											CHANNELS 3 Xrotation Yrotation Zrotation
											JOINT mixamorig:LeftHandIndex4
											{
												OFFSET 2.774895 0.000000 0.000000
												CHANNELS 3 Xrotation Yrotation Zrotation
												End Site
												{
													OFFSET 2.774902 0.000000 -0.000072
												}
											}
										}
									}
								}
								JOINT mixamorig:LeftHandMiddle1
								{
									OFFSET 9.533401 0.000000 0.000000
									CHANNELS 6 Xposition Yposition Zposition Xrotation Yrotation Zrotation
									JOINT mixamorig:LeftHandMiddle2
									{
										OFFSET 3.699997 0.000000 0.000000
										CHANNELS 3 Xrotation Yrotation Zrotation
										JOINT mixamorig:LeftHandMiddle3
										{
											OFFSET 2.949997 0.000000 0.000000
											CHANNELS 3 Xrotation Yrotation Zrotation
											JOINT mixamorig:LeftHandMiddle4
											{
												OFFSET 2.952896 0.000000 0.000000
												CHANNELS 3 Xrotation Yrotation Zrotation
												End Site
												{
													OFFSET 2.952904 0.000000 0.000165
												}
											}
										}
									}
								}
								JOINT mixamorig:LeftHandRing1
								{
									OFFSET 9.104500 -0.042999 -1.865101
									CHANNELS 6 Xposition Yposition Zposition Xrotation Yrotation Zrotation
									JOINT mixamorig:LeftHandRing2
									{
										OFFSET 3.149994 0.000000 0.000000
										CHANNELS 3 Xrotation Yrotation Zrotation
										JOINT mixamorig:LeftHandRing3
										{
											OFFSET 2.950005 0.000000 0.000000
											CHANNELS 3 Xrotation Yrotation Zrotation
											JOINT mixamorig:LeftHandRing4
											{
												OFFSET 2.644302 0.000000 0.000000
												CHANNELS 3 Xrotation Yrotation Zrotation
												End Site
												{
													OFFSET 2.644302 0.000000 0.000083
												}
											}
										}
									}
								}
								JOINT mixamorig:LeftHandPinky1
								{
									OFFSET 8.077805 -0.486893 -3.806302
									CHANNELS 6 Xposition Yposition Zposition Xrotation Yrotation Zrotation
									JOINT mixamorig:LeftHandPinky2
									{
										OFFSET 3.600006 0.000000 0.000000
										CHANNELS 3 Xrotation Yrotation Zrotation
										JOINT mixamorig:LeftHandPinky3
										{
											OFFSET 2.099998 0.000000 0.000000
											CHANNELS 3 Xrotation Yrotation Zrotation
											JOINT mixamorig:LeftHandPinky4
											{
												OFFSET 2.125496 0.000000 0.000000
												CHANNELS 3 Xrotation Yrotation Zrotation
												End Site
												{
													OFFSET 2.125504 0.000000 -0.001254
												}
											}
										}
									}
								}
							}
						}
					}
				}
			}
		}
	}
	JOINT mixamorig:RightUpLeg
	{
		OFFSET -8.207800 -6.751701 -1.599544
		CHANNELS 6 Xposition Yposition Zposition Xrotation Yrotation Zrotation
		JOINT mixamorig:RightLeg
		{
			OFFSET 0.000004 -44.370152 0.345934
			CHANNELS 3 Xrotation Yrotation Zrotation
			JOINT mixamorig:RightFoot
			{
				OFFSET 0.000004 -44.423664 -3.043535
				CHANNELS 3 Xrotation Yrotation Zrotation
				JOINT mixamorig:RightToeBase
				{
					OFFSET 0.000001 -8.728691 10.710592
					CHANNELS 3 Xrotation Yrotation Zrotation
					JOINT mixamorig:RightToe_End
					{
						OFFSET 0.000000 -0.000665 9.278101
						CHANNELS 3 Xrotation Yrotation Zrotation
						End Site
						{
							OFFSET 0.000000 -0.000665 9.278103
						}
					}
				}
			}
		}
	}
	JOINT mixamorig:LeftUpLeg
	{
		OFFSET 8.207800 -6.751701 -1.599544
		CHANNELS 6 Xposition Yposition Zposition Xrotation Yrotation Zrotation
		JOINT mixamorig:LeftLeg
		{
			OFFSET 0.000004 -44.370037 0.346940
			CHANNELS 3 Xrotation Yrotation Zrotation
			JOINT mixamorig:LeftFoot
			{
				OFFSET 0.000004 -44.423611 -3.044388
				CHANNELS 3 Xrotation Yrotation Zrotation
				JOINT mixamorig:LeftToeBase
				{
					OFFSET 0.000001 -8.728690 10.710592
					CHANNELS 3 Xrotation Yrotation Zrotation
					JOINT mixamorig:LeftToe_End
					{
						OFFSET 0.000000 -0.000680 9.278101
						CHANNELS 3 Xrotation Yrotation Zrotation
						End Site
						{
							OFFSET 0.000000 -0.000680 9.278101
						}
					}
				}
			}
		}
	}
}
MOTION
Frames: 4
Frame Time: 0.033333
1.048223 86.776764 47.789036 -1.986984 -49.222004 -8.112276 0.000000 10.181548 0.131523 8.523891 1.663454 -2.973586 10.251819 2.957827 -3.837028 10.312156 2.949913 -3.651933 0.000005 16.740358 -2.049010 -2.395386 1.736099 -3.142323 -0.000002 9.617850 1.684973 1.130506 14.699194 1.378204 -0.000001 22.037338 7.501082 -0.000000 -0.000001 0.000000 -4.569997 11.014870 -2.160831 1.211303 2.918510 -1.411655 -70.006823 34.945457 76.538704 0.000304 104.208961 -0.000231 -4.629500 17.523064 -24.915490 -2.464780 -1.573997 2.681911 8.395965 -16.401181 6.859033 13.617774 -18.222576 -1.655162 -2.646268 -1.527803 1.527819 70.789132 -48.031198 23.551705 -1.994576 -1.151598 1.151571 0.000005 -0.000006 -0.000000 -9.108305 -0.517886 2.259804 5.546599 -6.806061 78.334319 8.230101 -6.829514 100.656832 5.546573 -6.806060 78.334313 -0.000000 -0.000002 0.000001 -9.532500 0.000003 -0.000003 5.697935 -6.835629 79.099157 8.230155 -6.829528 100.657317 5.647032 -5.918528 77.577200 0.000000 0.000001 0.000001 -9.103579 -0.043101 -1.865105 5.563000 -6.811836 76.969846 8.413767 -6.792656 102.205380 5.703239 -6.567473 79.241266 0.000000 0.000005 -0.000000 -8.076693 -0.486715 -3.806300 5.546583 -6.806061 78.334326 8.230099 -6.829529 100.656846 5.546582 -6.806063 78.334306 -0.000000 0.000005 0.000003 4.570405 11.014679 -2.160810 3.071978 -5.206762 -5.748736 -45.783212 -11.912560 -53.290116 -0.000028 -110.168930 -0.000020 -26.524754 -6.433176 -7.159031 2.466110 -1.576182 2.681698 5.477512 9.572974 -5.045669 18.936061 30.407053 -7.599490 2.647882 -1.528754 1.528764 8.227222 38.219283 10.744991 1.998924 -1.154096 1.154070 0.000001 0.000004 0.000003 9.109294 -0.517982 2.259903 5.029903 6.628793 -74.357490 8.636878 6.654702 -104.815823 5.029911 6.628801 -74.357483 0.000002 0.000001 -0.000003 9.533402 0.000015 0.000001 5.203523 6.675215 -75.121098 8.636880 6.654688 -104.815926 4.936743 6.602173 -73.548973 -0.000000 0.000003 -0.000003 9.104500 -0.042998 -1.865103 5.041672 6.632594 -73.758940 8.710746 6.634855 -105.454187 5.075438 6.641291 -74.751544 -0.000001 0.000002 0.000002 8.077797 -0.486899 -3.806294 6.376418 6.940437 -77.258899 8.607694 2.575145 -104.532780 4.764990 6.549359 -72.049104 -0.000001 -0.000001 0.000001 -8.207802 -6.751701 -1.599543 -11.642548 -14.183351 -29.629344 39.908225 9.494932 -8.364137 -10.445776 3.725538 18.187575 -4.107734 -0.077778 2.754510 0.000001 -0.000001 -0.000000 8.207797 -6.751693 -1.599544 -41.123838 -0.423300 28.797505 58.169586 -8.217824 10.000835 -14.380419 -12.541888 -21.354002 -9.860474 0.000001 -0.000002 0.000000 -0.000001 0.000000 
0.484154 87.190529 45.645386 -2.004537 -48.636377 -7.703479 -0.000001 10.181551 0.131524 8.525880 1.628644 -2.843636 10.297975 2.865505 -3.566580 10.353139 2.851521 -3.389063 0.000003 16.740345 -2.049014 -1.465289 1.875748 -3.626559 0.000005 9.617841 1.684963 1.561235 15.189432 0.851874 0.000001 22.037369 7.501066 0.000001 0.000000 -0.000000 -4.569997 11.014874 -2.160839 1.546774 3.999650 -0.964448 -69.968861 35.343756 75.670641 0.000235 103.954263 -0.000192 -4.789655 16.840094 -24.827963 -2.464792 -1.574001 2.681918 8.395963 -16.401178 6.859038 13.617776 -18.222584 -1.655161 -2.646272 -1.527819 1.527819 70.789132 -48.031191 23.551693 -1.994590 -1.151584 1.151575 0.000002 -0.000000 -0.000000 -9.108307 -0.517884 2.259809 5.546594 -6.806059 78.334319 8.230100 -6.829514 100.656832 5.546576 -6.806059 78.334306 0.000003 -0.000002 0.000002 -9.532484 0.000003 0.000000 5.697931 -6.835628 79.099157 8.230154 -6.829523 100.657317 5.647034 -5.918530 77.577200 0.000002 0.000000 0.000001 -9.103597 -0.043101 -1.865101 5.563002 -6.811835 76.969846 8.413763 -6.792657 102.205380 5.703239 -6.567469 79.241266 -0.000000 -0.000001 0.000000 -8.076696 -0.486716 -3.806291 5.546582 -6.806059 78.334326 8.230099 -6.829535 100.656846 5.546586 -6.806063 78.334306 -0.000000 -0.000000 0.000002 4.570407 11.014656 -2.160811 2.973929 -5.554780 -3.856938 -48.847741 -10.926243 -52.728084 0.000024 -112.308876 0.000033 -21.491662 -4.276146 -3.686003 2.466091 -1.576192 2.681700 5.477513 9.572977 -5.045672 18.936063 30.407060 -7.599485 2.647883 -1.528745 1.528757 8.227212 38.219276 10.744985 1.998916 -1.154068 1.154077 0.000001 -0.000005 0.000003 9.109286 -0.518004 2.259905 5.029902 6.628793 -74.357490 8.636875 6.654699 -104.815830 5.029910 6.628803 -74.357483 -0.000000 0.000005 -0.000002 9.533397 0.000015 0.000000 5.203525 6.675213 -75.121105 8.636883 6.654691 -104.815926 4.936742 6.602174 -73.548973 0.000001 -0.000002 0.000001 9.104492 -0.043003 -1.865102 5.041667 6.632593 -73.758946 8.710741 6.634856 -105.454180 5.075433 6.641287 -74.751544 -0.000001 -0.000002 -0.000001 8.077808 -0.486879 -3.806301 6.376419 6.940439 -77.258906 8.607698 2.575151 -104.532780 4.764989 6.549358 -72.049097 0.000003 0.000004 -0.000003 -8.207806 -6.751705 -1.599541 -12.358512 -14.005403 -29.518261 40.141841 9.428412 -8.142183 -11.688177 5.490033 19.335202 -4.573245 -0.083703 2.860057 -0.000000 -0.000002 0.000002 8.207798 -6.751701 -1.599546 -40.183335 -0.276444 29.091412 54.408600 -8.377236 9.993274 -12.596155 -12.685363 -22.818818 -9.184028 -0.000009 -0.000011 -0.000000 -0.000001 -0.000000 
-0.198249 87.660927 43.245647 -2.305945 -48.203534 -7.253035 -0.000001 10.181561 0.131523 8.457646 1.590455 -2.638303 10.260750 2.814851 -3.297454 10.307983 2.810219 -3.128042 0.000001 16.740355 -2.049026 -0.351884 2.026085 -4.289496 -0.000009 9.617863 1.684975 2.110528 15.637320 0.348213 0.000001 22.037384 7.501079 0.000000 -0.000001 0.000001 -4.570000 11.014889 -2.160847 1.917636 5.405153 -0.569422 -69.489832 35.947173 74.218693 0.000241 103.390308 -0.000199 -5.188748 15.845317 -24.609440 -2.464799 -1.574003 2.681908 8.395960 -16.401176 6.859032 13.617773 -18.222583 -1.655163 -2.646260 -1.527803 1.527823 70.789132 -48.031198 23.551694 -1.994598 -1.151587 1.151577 0.000000 -0.000002 0.000003 -9.108335 -0.517878 2.259808 5.546597 -6.806059 78.334319 8.230102 -6.829516 100.656832 5.546573 -6.806059 78.334306 -0.000001 0.000000 0.000000 -9.532531 0.000009 0.000007 5.697933 -6.835625 79.099157 8.230153 -6.829521 100.657317 5.647033 -5.918526 77.577200 -0.000001 -0.000000 0.000001 -9.103610 -0.043116 -1.865102 5.563003 -6.811832 76.969846 8.413765 -6.792657 102.205380 5.703238 -6.567469 79.241266 0.000002 0.000003 -0.000000 -8.076709 -0.486725 -3.806300 5.546581 -6.806059 78.334326 8.230099 -6.829533 100.656846 5.546583 -6.806065 78.334306 -0.000001 0.000001 -0.000000 4.570403 11.014688 -2.160824 2.750234 -5.196985 -2.338724 -50.058849 -10.310122 -53.067991 -0.000009 -114.177335 -0.000011 -17.992834 -2.889056 -0.404852 2.466100 -1.576216 2.681705 5.477507 9.572977 -5.045675 18.936057 30.407053 -7.599487 2.647887 -1.528741 1.528758 8.227213 38.219283 10.744986 1.998914 -1.154110 1.154076 -0.000005 -0.000000 -0.000002 9.109286 -0.518012 2.259901 5.029899 6.628793 -74.357496 8.636874 6.654700 -104.815823 5.029908 6.628804 -74.357483 -0.000001 -0.000001 0.000000 9.533397 0.000007 0.000002 5.203519 6.675216 -75.121105 8.636880 6.654693 -104.815926 4.936744 6.602171 -73.548973 -0.000005 -0.000000 -0.000002 9.104496 -0.042995 -1.865097 5.041667 6.632592 -73.758940 8.710745 6.634856 -105.454187 5.075436 6.641289 -74.751544 -0.000006 0.000003 0.000000 8.077792 -0.486903 -3.806293 6.376417 6.940434 -77.258906 8.607697 2.575147 -104.532780 4.764989 6.549358 -72.049097 -0.000001 0.000001 -0.000002 -8.207805 -6.751708 -1.599544 -12.783849 -13.832599 -29.081347 40.482005 9.323955 -7.907820 -11.992584 4.913654 21.156632 -5.992592 -0.115478 3.362697 -0.000000 -0.000001 0.000001 8.207799 -6.751688 -1.599548 -38.794744 0.232637 29.352817 49.896243 -8.444177 9.991526 -10.050945 -13.234671 -24.400724 -8.954505 0.000010 -0.000004 0.000000 -0.000004 -0.000000 
-1.026127 88.108788 40.470612 -2.731401 -47.592970 -6.564791 0.000002 10.181552 0.131523 8.356896 1.551091 -2.432515 10.191895 2.783511 -3.089050 10.230178 2.798335 -2.927972 0.000006 16.740364 -2.049021 0.912185 2.160034 -5.191156 0.000003 9.617870 1.684974 2.598697 15.889349 -0.087741 0.000002 22.037384 7.501077 0.000000 0.000001 -0.000001 -4.569994 11.014871 -2.160842 2.245264 7.169156 -0.476741 -68.530696 36.179010 72.440030 0.000316 102.863469 -0.000238 -5.553916 14.358343 -24.360766 -2.464810 -1.573994 2.681921 8.395960 -16.401181 6.859040 13.617775 -18.222586 -1.655155 -2.646264 -1.527803 1.527819 70.789126 -48.031198 23.551701 -1.994594 -1.151581 1.151571 -0.000001 -0.000001 0.000001 -9.108319 -0.517882 2.259803 5.546597 -6.806064 78.334319 8.230104 -6.829509 100.656832 5.546578 -6.806063 78.334313 0.000002 -0.000000 0.000000 -9.532530 -0.000003 0.000001 5.697932 -6.835632 79.099157 8.230153 -6.829526 100.657317 5.647033 -5.918526 77.577193 0.000001 0.000002 0.000001 -9.103611 -0.043104 -1.865098 5.563002 -6.811838 76.969846 8.413763 -6.792656 102.205380 5.703240 -6.567472 79.241266 0.000001 0.000002 -0.000001 -8.076711 -0.486724 -3.806298 5.546581 -6.806064 78.334326 8.230095 -6.829533 100.656846 5.546585 -6.806067 78.334306 -0.000000 0.000000 -0.000001 4.570405 11.014686 -2.160818 2.520910 -4.574332 -1.446025 -49.971020 -10.133711 -53.977196 0.000007 -116.054285 -0.000003 -15.627708 -2.006736 1.807336 2.466092 -1.576210 2.681692 5.477515 9.572976 -5.045669 18.936063 30.407060 -7.599489 2.647872 -1.528745 1.528756 8.227219 38.219280 10.744992 1.998936 -1.154082 1.154080 -0.000001 -0.000004 -0.000002 9.109275 -0.518005 2.259891 5.029901 6.628793 -74.357490 8.636872 6.654701 -104.815830 5.029912 6.628801 -74.357483 0.000001 0.000005 0.000000 9.533411 -0.000000 -0.000006 5.203520 6.675217 -75.121105 8.636880 6.654691 -104.815926 4.936743 6.602172 -73.548973 0.000001 0.000003 0.000001 9.104492 -0.043010 -1.865108 5.041669 6.632592 -73.758940 8.710746 6.634855 -105.454180 5.075433 6.641289 -74.751544 0.000003 0.000003 -0.000001 8.077807 -0.486888 -3.806306 6.376415 6.940440 -77.258906 8.607702 2.575150 -104.532774 4.764993 6.549355 -72.049097 -0.000002 -0.000000 -0.000001 -8.207802 -6.751720 -1.599543 -12.976749 -13.698500 -28.517788 41.414528 9.209065 -7.667882 -12.822577 3.069839 22.933294 -7.143797 -0.158891 3.954806 0.000000 0.000001 0.000000 8.207803 -6.751709 -1.599537 -37.312282 1.047457 29.447210 44.655285 -8.399770 10.002557 -6.185547 -14.813757 -25.924717 -9.678869 0.000023 -0.000007 0.000000 0.000001 0.000000 
